<svg width="28" height="17" viewBox="0 0 28 17" fill="none" xmlns="http://www.w3.org/2000/svg">
    <path d="M14.296 10.444a4.37 4.37 0 0 1-.23-1.396 10.24 10.24 0 0 1 .594-3.42 6.322 6.322 0 0 1-3.541-1.173 5.309 5.309 0 0 0-6.842.566 3.57 3.57 0 0 0-1.043 2.524 4.382 4.382 0 0 0 1.486 3.289H3.038a1.347 1.347 0 0 0-1.077.538 4.48 4.48 0 0 0-.896 2.688 1.107 1.107 0 0 0 2.056.566l.978-1.63 1.586 1.585a3.478 3.478 0 0 0 4.546.325 2.013 2.013 0 0 0 .806-1.613c0-.243-.018-.486-.054-.726h1.96a4.458 4.458 0 0 1 1.353-2.123z" fill="#CEBEEF"/>
    <path d="M25.103 1.39a6.572 6.572 0 0 0-8.06-.019 1.296 1.296 0 0 0-2.284-.418l-.767 1.026a1.81 1.81 0 0 0-.102 2.01c.17.28.413.508.703.66-.08.178-.154.356-.224.537a5.868 5.868 0 0 1-3.001-1.079 5.741 5.741 0 0 0-7.397.606A3.974 3.974 0 0 0 2.8 7.54c0 1.027.328 2.027.937 2.854H3.04a1.791 1.791 0 0 0-1.425.712 4.946 4.946 0 0 0-.982 2.953 1.54 1.54 0 0 0 2.86.793l.693-1.154 1.189 1.189a3.885 3.885 0 0 0 2.766 1.145 3.935 3.935 0 0 0 2.346-.78 2.46 2.46 0 0 0 .98-1.96c0-.095-.01-.196-.014-.293h.953a4.88 4.88 0 0 0-.073.794v.325a2.351 2.351 0 0 0 2.347 2.348c.5 0 .999-.081 1.474-.24.386-.128.79-.194 1.197-.194a2.35 2.35 0 0 0 2.34-2.225 9.805 9.805 0 0 0 5.59-2.496A6.797 6.797 0 0 0 27.5 6.29a6.168 6.168 0 0 0-2.397-4.9zM14.499 3.055a.944.944 0 0 1 .19-.56l.765-1.022a.434.434 0 0 1 .78.26v.36a6.53 6.53 0 0 0-.464.548c-.29.39-.552.8-.785 1.226a.924.924 0 0 1-.486-.812zm-1.87 9.079h-1.293a5.287 5.287 0 0 0-1.43-2.606l-.735-.734-.613.612.735.734a4.43 4.43 0 0 1 1.306 3.152 1.59 1.59 0 0 1-.632 1.265 3.062 3.062 0 0 1-2.993.378 3.026 3.026 0 0 1-.987-.661l-1.584-1.58a.433.433 0 0 0-.678.083l-.976 1.629a.673.673 0 0 1-1.25-.346 4.073 4.073 0 0 1 .808-2.427.919.919 0 0 1 .73-.366h1.68A.434.434 0 0 0 5 10.511a3.95 3.95 0 0 1-1.335-2.971 3.111 3.111 0 0 1 .919-2.215 4.875 4.875 0 0 1 6.281-.52 6.732 6.732 0 0 0 3.216 1.226 10.664 10.664 0 0 0-.449 3.017c.002.425.06.847.174 1.257a4.883 4.883 0 0 0-1.178 1.828zm4.722 3.034c-.5 0-.999.08-1.474.24-.386.128-.79.193-1.196.193a1.483 1.483 0 0 1-1.482-1.482v-.325a4.027 4.027 0 0 1 .949-2.59c.212.423.486.812.812 1.155a1.728 1.728 0 0 0-.894 1.509h.866a.866.866 0 0 1 .784-.86 4.789 4.789 0 0 0 2.734.859h.216c.05 0 .095-.007.15-.007a1.478 1.478 0 0 1-1.466 1.307h.001zm7.346-4.5a8.95 8.95 0 0 1-6.033 2.333h-.214A3.96 3.96 0 0 1 14.5 9.05a9.876 9.876 0 0 1 1.962-5.888 5.736 5.736 0 0 1 8.108-1.083 5.307 5.307 0 0 1 2.063 4.214 5.929 5.929 0 0 1-1.937 4.377h.001z" fill="#fff"/>
    <path d="M17.966 6.066H17.1a2.233 2.233 0 0 0 1.53 2.123l.067.023.274-.823-.067-.023a1.37 1.37 0 0 1-.938-1.3zM20.566 9.533H19.7a1.734 1.734 0 0 0 1.733 1.734V10.4a.867.867 0 0 1-.867-.867zM18.145 11.267A1.048 1.048 0 0 1 17.1 10.22v-.254h-.868v.255a1.914 1.914 0 0 0 1.912 1.914h.255v-.867l-.254-.002zM23.367 3.466a1.953 1.953 0 0 0-1.39.576l-.359.36a2.112 2.112 0 0 0 .552 3.383l.805.402A.433.433 0 0 0 23.6 7.8v-.634a.232.232 0 0 1 .232-.232 1.503 1.503 0 0 0 1.503-1.502 1.967 1.967 0 0 0-1.968-1.966zm.465 2.6a1.1 1.1 0 0 0-1.1 1.037l-.18-.094a1.247 1.247 0 0 1-.323-1.994l.36-.36a1.1 1.1 0 0 1 1.877.776.636.636 0 0 1-.634.634v.001z" fill="#fff"/>
</svg>
