<svg width="37" height="37" viewBox="0 0 37 37" fill="none" xmlns="http://www.w3.org/2000/svg">
    <g clip-path="url(#tey0abph3a)">
        <path d="M36.102 18.449a4.14 4.14 0 0 0-.85-2.526 1.907 1.907 0 0 1-.328-1.642 4.178 4.178 0 0 0-1.932-4.666 1.906 1.906 0 0 1-.93-1.392A4.177 4.177 0 0 0 28.49 4.65a1.906 1.906 0 0 1-1.392-.932 4.173 4.173 0 0 0-4.667-1.934 1.919 1.919 0 0 1-1.642-.326 4.142 4.142 0 0 0-2.528-.85l-4.182 17.84 4.182 17.842c.912.003 1.8-.296 2.525-.85a1.917 1.917 0 0 1 1.642-.327 4.178 4.178 0 0 0 4.667-1.932 1.906 1.906 0 0 1 1.392-.931 4.178 4.178 0 0 0 3.573-3.572 1.905 1.905 0 0 1 .93-1.393 4.178 4.178 0 0 0 1.934-4.667 1.907 1.907 0 0 1 .325-1.642 4.143 4.143 0 0 0 .853-2.527z" fill="#A177F5"/>
        <path d="M15.736 1.457a1.93 1.93 0 0 1-1.643.327 4.177 4.177 0 0 0-4.667 1.933 1.906 1.906 0 0 1-1.393.93A4.177 4.177 0 0 0 4.461 8.22a1.906 1.906 0 0 1-.93 1.393 4.178 4.178 0 0 0-1.934 4.667 1.906 1.906 0 0 1-.326 1.642 4.177 4.177 0 0 0 0 5.052 1.905 1.905 0 0 1 .328 1.642 4.178 4.178 0 0 0 1.932 4.667 1.906 1.906 0 0 1 .93 1.392 4.177 4.177 0 0 0 3.572 3.573 1.905 1.905 0 0 1 1.392.932 4.174 4.174 0 0 0 4.666 1.934 1.917 1.917 0 0 1 1.642.326 4.142 4.142 0 0 0 2.527.851V.607a4.141 4.141 0 0 0-2.524.85z" fill="#8157D8"/>
        <path d="m18.261 4.858-2.998 13.59 2.998 13.591a13.59 13.59 0 1 0 0-27.18z" fill="#6E2AFA"/>
        <path d="M4.67 18.449a13.59 13.59 0 0 0 13.591 13.59V4.858a13.59 13.59 0 0 0-13.59 13.59z" fill="#874DFF"/>
        <path d="m18.261 12.042-2.09 7.318 11.6-2.09-2.696-5.227h-6.814z" fill="#DECEFF"/>
        <path d="M18.261 12.042h-6.814L8.75 17.27l9.507 2.09.003-7.317z" fill="#fff"/>
        <path d="m18.261 28.2 9.506-10.931h-9.506l-2.09 5.46 2.09 5.47z" fill="#A982FA"/>
        <path d="m8.752 17.269 9.507 10.93V17.27H8.752z" fill="#DECEFF"/>
    </g>
    <defs>
        <clipPath id="tey0abph3a">
            <path fill="#fff" transform="translate(.42 .607)" d="M0 0h35.683v35.683H0z"/>
        </clipPath>
    </defs>
</svg>
