<svg width="20" height="17" viewBox="0 0 20 17" fill="none" xmlns="http://www.w3.org/2000/svg">
    <path d="M13.896.9C12.404.892 10.985 1.562 10 2.73 9.023 1.553 7.599.882 6.104.9 3.225.9.9 3.346.9 6.353c0 1.294.538 2.573 1.34 3.761.802 1.189 1.873 2.294 2.952 3.245 2.141 1.886 4.324 3.169 4.527 3.283.17.117.392.117.562 0a30.49 30.49 0 0 0 4.527-3.256c1.079-.946 2.15-2.05 2.952-3.242.802-1.191 1.34-2.479 1.34-3.79C19.1 3.345 16.775.9 13.896.9zm0 0V1 .9zM6.104 2.056h.001c1.381-.019 2.676.712 3.422 1.936l.003.005c.187.27.551.332.812.134a.59.59 0 0 0 .128-.134l.002-.004c1.238-1.986 3.773-2.54 5.662-1.245 1.158.795 1.857 2.15 1.855 3.605 0 1.013-.413 2.042-1.062 3.034-.649.99-1.53 1.936-2.454 2.78-1.804 1.645-3.765 2.892-4.472 3.318-.708-.438-2.67-1.696-4.473-3.345-.925-.845-1.806-1.79-2.455-2.777-.65-.987-1.062-2.01-1.062-3.01 0-2.377 1.837-4.297 4.093-4.297z" fill="#fff" stroke="#fff" stroke-width=".2"/>
</svg>
