<svg width="29" height="29" viewBox="0 0 29 29" fill="none" xmlns="http://www.w3.org/2000/svg">
    <path d="M28.188 7.986 15.361.24a1.665 1.665 0 0 0-1.722 0L.813 7.986A1.687 1.687 0 0 0 0 9.429v16.765c0 .744.295 1.457.818 1.983a2.783 2.783 0 0 0 1.97.823h6.135c.444 0 .87-.177 1.183-.493a1.69 1.69 0 0 0 .49-1.19V20.02a.563.563 0 0 1 .558-.562h6.692a.556.556 0 0 1 .558.562v7.296c0 .447.176.875.49 1.19.314.317.74.494 1.183.494h6.134c.74 0 1.449-.297 1.971-.823A2.82 2.82 0 0 0 29 26.194V9.429a1.7 1.7 0 0 0-.812-1.443zm-.303 18.208c0 .446-.177.875-.49 1.19-.314.316-.74.493-1.183.493h-6.135a.556.556 0 0 1-.558-.56V20.02a1.69 1.69 0 0 0-.49-1.191 1.668 1.668 0 0 0-1.183-.493h-6.692c-.444 0-.87.177-1.183.493a1.69 1.69 0 0 0-.49 1.19v7.297a.563.563 0 0 1-.558.561H2.788c-.443 0-.869-.177-1.183-.493a1.69 1.69 0 0 1-.49-1.19V9.429a.564.564 0 0 1 .27-.48l12.828-7.746a.555.555 0 0 1 .575 0l12.827 7.745a.56.56 0 0 1 .27.481v16.765z" fill="#BEAFE8"/>
</svg>
