<svg width="29" height="29" viewBox="0 0 29 29" fill="none" xmlns="http://www.w3.org/2000/svg">
<path d="M29 9.61921V25.758C28.9992 26.6176 28.6594 27.4417 28.0553 28.0495C27.4512 28.6573 26.6321 28.9992 25.7777 29H20.4074C19.8377 29 19.2913 28.7722 18.8884 28.3669C18.4855 27.9616 18.2593 27.4119 18.2593 26.8387V20.8949C18.2593 20.6084 18.1461 20.3335 17.9446 20.1308C17.7432 19.9282 17.4701 19.8143 17.1851 19.8143H11.8148C11.5299 19.8143 11.2567 19.9282 11.0554 20.1308C10.8539 20.3335 10.7407 20.6084 10.7407 20.8949V26.8387C10.7407 27.4119 10.5145 27.9616 10.1116 28.3669C9.70865 28.7722 9.16231 29 8.59258 29H3.22223C2.3679 28.9992 1.54881 28.6573 0.94471 28.0495C0.34061 27.4417 0.000853332 26.6176 0 25.758V9.61921C0.000805925 9.24597 0.097197 8.87931 0.279881 8.55449C0.462565 8.22966 0.725368 7.95769 1.04293 7.76481L13.3948 0.308169C13.7287 0.106523 14.1108 0 14.5002 0C14.8897 0 15.2718 0.106523 15.6058 0.308169L27.9576 7.76481C28.275 7.95775 28.5378 8.22975 28.7203 8.55457C28.9029 8.8794 28.9992 9.24609 29 9.61921Z" fill="#BEAFE8"/>
</svg>
