<svg width="15" height="20" viewBox="0 0 15 20" fill="none" xmlns="http://www.w3.org/2000/svg">
    <path d="M11.818 20H2.727A2.73 2.73 0 0 1 0 17.273v-1.389a2.712 2.712 0 0 1 1.042-2.144l2.942-2.311a.909.909 0 0 1 1.123 1.428l-2.94 2.31a.9.9 0 0 0-.347.715v1.389a.91.91 0 0 0 .909.909h9.091a.91.91 0 0 0 .909-.909v-1.387a.9.9 0 0 0-.348-.715L1.042 6.261A2.711 2.711 0 0 1 0 4.117v-1.39A2.73 2.73 0 0 1 2.727 0h9.091a2.73 2.73 0 0 1 2.727 2.727v1.389a2.712 2.712 0 0 1-1.042 2.144l-2.942 2.311a.909.909 0 0 1-1.123-1.429l2.942-2.311a.9.9 0 0 0 .347-.715V2.727a.91.91 0 0 0-.909-.909H2.727a.91.91 0 0 0-.909.909v1.389a.9.9 0 0 0 .348.715l11.337 8.908a2.71 2.71 0 0 1 1.042 2.144v1.389A2.73 2.73 0 0 1 11.818 20z" fill="#fff"/>
    <path d="M9.546 16.818H5.001a.91.91 0 0 1 0-1.818h4.545a.91.91 0 0 1 0 1.818z" fill="#CEBEEF"/>
</svg>
