<svg width="8" height="10" viewBox="0 0 8 10" fill="none" xmlns="http://www.w3.org/2000/svg">
    <g clip-path="url(#halhw7gdda)">
        <path d="M7 3.746h-.333V2.5c0-.663-.281-1.299-.781-1.768A2.76 2.76 0 0 0 4 0a2.76 2.76 0 0 0-1.886.732 2.423 2.423 0 0 0-.78 1.768v1.246H1a1.06 1.06 0 0 0-.383.072 1.008 1.008 0 0 0-.325.204.936.936 0 0 0-.217.306.888.888 0 0 0-.075.36v4.375a.91.91 0 0 0 .293.662C.481 9.901.735 10 1 10h6c.265 0 .52-.1.707-.275A.91.91 0 0 0 8 9.063V4.686a.887.887 0 0 0-.075-.36.936.936 0 0 0-.217-.305 1.008 1.008 0 0 0-.325-.204A1.06 1.06 0 0 0 7 3.746zM2.222 2.5a1.62 1.62 0 0 1 .536-1.152A1.842 1.842 0 0 1 3.999.874c.465 0 .91.17 1.242.474.333.303.525.717.536 1.152v1.246H2.222V2.5z" fill="#fff"/>
    </g>
    <defs>
        <clipPath id="halhw7gdda">
            <path fill="#fff" d="M0 0h8v10H0z"/>
        </clipPath>
    </defs>
</svg>
