<svg width="31" height="31" viewBox="0 0 31 31" fill="none" xmlns="http://www.w3.org/2000/svg">
    <path d="M30.246 17.665c-.317-.08-.635 0-.912.199a11.617 11.617 0 0 1-3.528 2.07c-1.229.477-2.577.716-4.004.716-3.21 0-6.144-1.313-8.245-3.423a11.73 11.73 0 0 1-3.409-8.28c0-1.353.238-2.667.634-3.861a10.701 10.701 0 0 1 1.903-3.423A1.019 1.019 0 0 0 12.526.23c-.277-.2-.594-.28-.911-.2-3.37.916-6.303 2.946-8.404 5.653A15.745 15.745 0 0 0 0 15.237c0 4.339 1.744 8.28 4.598 11.145C7.452 29.248 11.338 31 15.698 31c3.646 0 7.016-1.274 9.712-3.384a15.702 15.702 0 0 0 5.55-8.717c.158-.558-.16-1.115-.714-1.234z" fill="#fff"/>
</svg>
