<svg width="21" height="21" viewBox="0 0 21 21" fill="none" xmlns="http://www.w3.org/2000/svg">
    <path d="M10.223 20.244a10.122 10.122 0 1 1 0-20.243c.092 0 .18.004.272.011l.11.007a.92.92 0 0 1 .443 1.707 5.516 5.516 0 1 0 7.573 7.573.92.92 0 0 1 1.706.442l.007.11c.006.09.012.18.012.272a10.133 10.133 0 0 1-10.123 10.12zM7.905 2.168a8.282 8.282 0 1 0 10.269 10.271A7.364 7.364 0 0 1 7.904 2.168z" fill="#fff"/>
    <path d="M8.398 16.74a.927.927 0 0 1-.28-.044 6.86 6.86 0 0 1-4.032-3.413.92.92 0 1 1 1.636-.842 5.026 5.026 0 0 0 2.956 2.5.92.92 0 0 1-.28 1.8v-.002z" fill="#CEBEEF"/>
</svg>
