<svg width="26" height="26" viewBox="0 0 26 26" fill="none" xmlns="http://www.w3.org/2000/svg">
<path d="M12.9999 12.3809C14.2243 12.3809 15.4211 12.0179 16.4392 11.3377C17.4572 10.6574 18.2506 9.69062 18.7191 8.55946C19.1877 7.4283 19.3103 6.18361 19.0714 4.98277C18.8326 3.78194 18.243 2.6789 17.3772 1.81315C16.5115 0.947397 15.4085 0.357812 14.2076 0.118951C13.0068 -0.11991 11.7621 0.00268223 10.631 0.471224C9.49981 0.939766 8.533 1.73321 7.85278 2.75123C7.17257 3.76925 6.80951 4.96611 6.80951 6.19047C6.80951 7.83229 7.46171 9.40686 8.62264 10.5678C9.78357 11.7287 11.3581 12.3809 12.9999 12.3809ZM12.9999 1.2381C13.9794 1.2381 14.9369 1.52855 15.7513 2.07272C16.5657 2.6169 17.2005 3.39035 17.5753 4.29528C17.9501 5.20021 18.0482 6.19597 17.8571 7.15663C17.666 8.1173 17.1944 8.99973 16.5018 9.69233C15.8092 10.3849 14.9268 10.8566 13.9661 11.0477C13.0054 11.2388 12.0097 11.1407 11.1048 10.7659C10.1998 10.391 9.42639 9.75628 8.88222 8.94186C8.33805 8.12745 8.04759 7.16996 8.04759 6.19047C8.04759 4.87702 8.56936 3.61736 9.4981 2.68861C10.4268 1.75986 11.6865 1.2381 12.9999 1.2381Z" fill="#BEAFE8"/>
<path d="M14.3123 13.6191H11.6876C10.1479 13.624 8.6242 13.9321 7.20356 14.5258C5.78292 15.1196 4.49314 15.9873 3.40785 17.0795C2.32256 18.1717 1.46303 19.4669 0.878316 20.8913C0.293606 22.3157 -0.00482634 23.8413 5.90232e-05 25.381C5.90232e-05 25.5452 0.0652795 25.7027 0.181372 25.8188C0.297465 25.9349 0.454921 26.0001 0.619101 26.0001H25.3808C25.5526 25.9844 25.7121 25.9042 25.827 25.7755C25.9419 25.6468 26.0037 25.4792 25.9998 25.3068C25.9933 22.209 24.7598 19.24 22.5694 17.0496C20.379 14.8592 17.41 13.6257 14.3123 13.6191ZM1.23814 24.762C1.38362 22.0903 2.54599 19.5756 4.48678 17.7338C6.42756 15.892 8.9996 14.8628 11.6752 14.8572H14.2999C16.9798 14.8564 19.5581 15.8829 21.5041 17.7253C23.4502 19.5678 24.616 22.0861 24.7617 24.762H1.23814Z" fill="#BEAFE8"/>
</svg>
