<svg width="27" height="27" viewBox="0 0 27 27" fill="none" xmlns="http://www.w3.org/2000/svg">
<path d="M13.2798 12.6612C16.6987 12.6612 19.4703 9.88966 19.4703 6.47075C19.4703 3.05184 16.6987 0.280273 13.2798 0.280273C9.86096 0.280273 7.08942 3.05184 7.08942 6.47075C7.08942 9.88966 9.86096 12.6612 13.2798 12.6612Z" fill="#BEAFE8"/>
<path d="M14.5922 13.8994H11.9675C10.4278 13.9043 8.90411 14.2124 7.48347 14.8061C6.06283 15.3998 4.77305 16.2676 3.68776 17.3598C2.60247 18.452 1.74293 19.7472 1.15822 21.1716C0.573513 22.596 0.275081 24.1216 0.279966 25.6613C0.279966 25.8255 0.345187 25.983 0.46128 26.0991C0.577373 26.2151 0.734828 26.2804 0.899008 26.2804H25.6607C25.8325 26.2647 25.992 26.1844 26.1069 26.0557C26.2218 25.927 26.2836 25.7595 26.2797 25.587C26.2732 22.4893 25.0397 19.5203 22.8493 17.3299C20.6589 15.1394 17.6899 13.906 14.5922 13.8994V13.8994Z" fill="#BEAFE8"/>
</svg>
