<svg width="29" height="28" viewBox="0 0 29 28" fill="none" xmlns="http://www.w3.org/2000/svg">
<path d="M24.0307 14.9003C22.871 14.8937 21.7685 15.4209 21.0005 16.3408L24.0304 15.0003M24.0307 14.9003C24.0308 14.9003 24.0308 14.9003 24.0309 14.9003L24.0304 15.0003M24.0307 14.9003C24.0306 14.9003 24.0305 14.9003 24.0304 14.9003V15.0003M24.0307 14.9003C26.2845 14.9005 28.1 16.856 28.1 19.2534C28.1 20.3006 27.6798 21.3273 27.0548 22.2761C26.4296 23.2254 25.5949 24.1035 24.755 24.8556C23.0909 26.3457 21.3948 27.3512 21.231 27.4454M24.0304 15.0003C26.2227 15.0003 28 16.9045 28 19.2534C28 23.3357 21.443 27.2091 21.1772 27.361M21.231 27.4454C21.2325 27.4444 21.234 27.4434 21.2354 27.4423L21.1772 27.361M21.231 27.4454C21.091 27.543 20.909 27.543 20.7689 27.4454M21.231 27.4454C21.2295 27.4463 21.2281 27.4471 21.2268 27.4478L21.1772 27.361M21.1772 27.361L20.7689 27.4454M20.7689 27.4454C20.6045 27.3505 18.9086 26.331 17.2448 24.8341C16.405 24.0785 15.5704 23.1987 14.9452 22.2522C14.3204 21.3063 13.9 20.2866 13.9 19.2534C13.9 16.8561 15.7153 14.9007 17.969 14.9003C17.9692 14.9003 17.9694 14.9003 17.9696 14.9003V15.0003L20.7689 27.4454ZM17.9696 15.8598L17.971 15.8597C19.036 15.8448 20.0358 16.4202 20.6129 17.3869L20.6127 17.387L20.6159 17.3917C20.7677 17.616 21.0661 17.6695 21.2799 17.5033L21.2799 17.5033C21.3201 17.472 21.3553 17.4343 21.3841 17.3917L21.3842 17.3918L21.3866 17.3878C22.3436 15.8197 24.2999 15.3843 25.7575 16.4055C26.6519 17.0321 27.1929 18.1029 27.1911 19.2532V19.2534C27.1911 20.0532 26.8723 20.8674 26.3685 21.6533C25.8651 22.4385 25.1815 23.1887 24.4628 23.8583C23.072 25.1542 21.5602 26.1391 21.0007 26.4838C20.4408 26.1297 18.9285 25.1356 17.5372 23.837C16.8185 23.1661 16.1348 22.4166 15.6314 21.6344C15.1275 20.8516 14.8089 20.0435 14.8089 19.2534C14.8089 17.3726 16.2304 15.8597 17.9696 15.8598Z" fill="#BEAFE8" stroke="#BEAFE8" stroke-width="0.2"/>
<path d="M0 1H27" stroke="#BEAFE8" stroke-width="1.5"/>
<path d="M0 1H27" stroke="#BEAFE8" stroke-width="1.5"/>
<path d="M0 1H27" stroke="#BEAFE8" stroke-width="1.5"/>
<path d="M0 1H27" stroke="#BEAFE8" stroke-width="1.5"/>
<path d="M0 11H27" stroke="#BEAFE8" stroke-width="1.5"/>
<path d="M0 11H27" stroke="#BEAFE8" stroke-width="1.5"/>
<path d="M0 11H27" stroke="#BEAFE8" stroke-width="1.5"/>
<path d="M0 11H27" stroke="#BEAFE8" stroke-width="1.5"/>
<path d="M0 21H15" stroke="#BEAFE8" stroke-width="1.5"/>
<path d="M0 21H15" stroke="#BEAFE8" stroke-width="1.5"/>
<path d="M0 21H15" stroke="#BEAFE8" stroke-width="1.5"/>
<path d="M0 21H15" stroke="#BEAFE8" stroke-width="1.5"/>
</svg>
