<svg width="29" height="28" viewBox="0 0 29 28" fill="none" xmlns="http://www.w3.org/2000/svg">
    <path d="M24.03 14.9c-1.159-.006-2.262.52-3.03 1.44L24.03 15m0-.1v.1m0-.1v.1m0-.1c2.255 0 4.07 1.956 4.07 4.353 0 1.048-.42 2.074-1.045 3.023-.625.95-1.46 1.828-2.3 2.58a23.742 23.742 0 0 1-3.524 2.59M24.031 15C26.222 15 28 16.904 28 19.253c0 4.083-6.557 7.956-6.823 8.108m.054.084a.07.07 0 0 0 .004-.003l-.058-.081m.054.084a.401.401 0 0 1-.462 0m.462 0a.105.105 0 0 1-.004.003l-.05-.087m0 0-.408.084m0 0a24.15 24.15 0 0 1-3.524-2.61c-.84-.757-1.675-1.636-2.3-2.583-.625-.946-1.045-1.965-1.045-2.999 0-2.397 1.815-4.352 4.069-4.353v.1l2.8 12.445zm-2.8-11.585h.002c1.065-.015 2.065.56 2.642 1.527l.003.005c.152.224.45.277.664.111a.487.487 0 0 0 .104-.111l.003-.004c.957-1.568 2.913-2.004 4.37-.983.895.627 1.436 1.698 1.434 2.848 0 .8-.319 1.614-.822 2.4-.504.786-1.188 1.536-1.906 2.205-1.391 1.296-2.903 2.281-3.462 2.626-.56-.354-2.073-1.348-3.464-2.647-.718-.67-1.402-1.42-1.906-2.203-.504-.782-.822-1.59-.822-2.38 0-1.881 1.421-3.394 3.16-3.394z" fill="#DFC9F1" stroke="#DFC9F1" stroke-width=".2"/>
    <path d="M0 1h27M0 1h27M0 1h27M0 1h27M0 11h27M0 11h27M0 11h27M0 11h27M0 21h15M0 21h15M0 21h15M0 21h15" stroke="#DFC9F1" stroke-width="1.5"/>
</svg>
