<svg width="29" height="28" viewBox="0 0 29 28" fill="none" xmlns="http://www.w3.org/2000/svg">
<path d="M0 1H27" stroke="#BEAFE8" stroke-width="1.5"/>
<path d="M0 1H27" stroke="#BEAFE8" stroke-width="1.5"/>
<path d="M0 1H27" stroke="#BEAFE8" stroke-width="1.5"/>
<path d="M0 1H27" stroke="#BEAFE8" stroke-width="1.5"/>
<path d="M0 11H27" stroke="#BEAFE8" stroke-width="1.5"/>
<path d="M0 11H27" stroke="#BEAFE8" stroke-width="1.5"/>
<path d="M0 11H27" stroke="#BEAFE8" stroke-width="1.5"/>
<path d="M0 11H27" stroke="#BEAFE8" stroke-width="1.5"/>
<path d="M0 21H15" stroke="#BEAFE8" stroke-width="1.5"/>
<path d="M0 21H15" stroke="#BEAFE8" stroke-width="1.5"/>
<path d="M0 21H15" stroke="#BEAFE8" stroke-width="1.5"/>
<path d="M0 21H15" stroke="#BEAFE8" stroke-width="1.5"/>
<path d="M23.9533 14.8L23.9531 15L23.9529 14.8C23.3719 14.8007 22.7972 14.9204 22.2642 15.1517C21.7949 15.3554 21.3668 15.6419 21 15.9968C20.4399 15.4549 19.7403 15.0765 18.9773 14.9052C18.1464 14.7186 17.2787 14.7861 16.4867 15.099C15.6947 15.4118 15.015 15.9555 14.5359 16.6595C14.0568 17.3635 13.8004 18.1952 13.8 19.0468V19.0469C13.8 20.1074 14.227 21.1483 14.8524 22.1061C15.4786 23.0651 16.3129 23.9549 17.1501 24.7174C18.8121 26.231 20.5089 27.2636 20.6815 27.3599C20.7799 27.4183 20.8921 27.449 21.0066 27.449C21.1216 27.449 21.2345 27.4179 21.3333 27.3589C21.4855 27.2708 23.1847 26.2368 24.8516 24.7173C25.6879 23.9549 26.5218 23.0651 27.1478 22.1061C27.773 21.1483 28.2 20.1074 28.2 19.0469V19.0467C28.1988 17.9207 27.751 16.8413 26.9548 16.0452C26.1587 15.249 25.0793 14.8012 23.9533 14.8ZM20.4777 17.3398L20.4778 17.3399C20.5366 17.4234 20.6147 17.4916 20.7054 17.5386C20.7961 17.5857 20.8967 17.6102 20.9989 17.6102C21.1011 17.6102 21.2018 17.5857 21.2925 17.5386C21.3832 17.4916 21.4612 17.4234 21.5201 17.3399L21.5203 17.3396C21.8832 16.8223 22.4015 16.4342 22.9999 16.2315C23.5984 16.0289 24.2458 16.0222 24.8483 16.2126C25.4508 16.4029 25.9769 16.7803 26.3504 17.2899C26.7238 17.7996 26.9251 18.415 26.925 19.0468V19.0469C26.925 19.7831 26.6327 20.5475 26.1578 21.301C25.6838 22.053 25.0366 22.7801 24.3484 23.4375C23.0524 24.6756 21.63 25.649 20.9999 26.0583C20.3699 25.6501 18.9475 24.6772 17.6516 23.4391C16.9634 22.7818 16.3162 22.0545 15.8422 21.3022C15.3673 20.5485 15.075 19.7836 15.075 19.0469C15.0756 18.4157 15.2771 17.801 15.6504 17.292C16.0237 16.7829 16.5494 16.406 17.1514 16.2158C17.7533 16.0255 18.4002 16.0319 18.9983 16.234C19.5963 16.4361 20.1145 16.8234 20.4777 17.3398Z" fill="#BEAFE8" stroke="#BEAFE8" stroke-width="0.4"/>
</svg>
