<svg width="22" height="23" viewBox="0 0 22 23" fill="none" xmlns="http://www.w3.org/2000/svg">
    <path d="M16.31 0a2.394 2.394 0 0 0-1.5.609A2.378 2.378 0 0 0 13.327 0h-.016a2.194 2.194 0 0 0-2.138 2.216 2.123 2.123 0 0 0 .632 1.523l3.008 2.967 3-2.958.009-.009a2.122 2.122 0 0 0 .632-1.523A2.183 2.183 0 0 0 16.31 0z" fill="#CEBEEF"/>
    <path d="M8.56 1.511c-.43-.55-1-.974-1.652-1.225-.212-.082-.83-.347-1.05-.245-.264.123-.287.81-.353 1.115L4.32 6.694a2.654 2.654 0 0 0-2.957-.372A2.654 2.654 0 0 0 .022 8.981a2.654 2.654 0 0 0 2.057 2.156 2.654 2.654 0 0 0 2.717-1.215 5.184 5.184 0 0 0 .528-1.621l1.39-6.679a2.539 2.539 0 0 1 1.292 2.706v.006l1.267.27a3.858 3.858 0 0 0-.713-3.093zM12.988 9.196l-1.43 6.676a2.589 2.589 0 1 0 .8 2.462c0-.022.008-.044.012-.066l1.614-7.536 6.35 1.356-1.171 5.41a2.588 2.588 0 1 0-2.28 4.451 2.592 2.592 0 0 0 3.074-1.992c0-.021.009-.043.013-.064l1.905-8.8-8.887-1.897z" fill="#fff"/>
</svg>
