<svg width="24" height="24" viewBox="0 0 24 24" fill="none" xmlns="http://www.w3.org/2000/svg">
    <path d="M16.346 23.096a1.09 1.09 0 0 1-.436-2.09 9.81 9.81 0 1 0-13.418-6.553 1.091 1.091 0 1 1-2.112.543 12 12 0 1 1 16.4 8.01c-.137.06-.285.09-.434.09z" fill="#fff"/>
    <path d="M16.91 13.088H12a1.091 1.091 0 0 1-1.09-1.09V5.452a1.09 1.09 0 1 1 2.181 0v5.453h3.818a1.091 1.091 0 0 1 0 2.182z" fill="#fff"/>
    <path d="M12.545 22.904H7.636a1.091 1.091 0 0 1-.844-1.781l3.45-4.218H7.637a1.09 1.09 0 1 1 0-2.182h4.909a1.091 1.091 0 0 1 .844 1.782l-3.45 4.218h2.606a1.09 1.09 0 1 1 0 2.181zM4.91 23.996H1.093a1.09 1.09 0 0 1-.82-1.809l2.234-2.554H1.093a1.09 1.09 0 1 1 0-2.182H4.91a1.091 1.091 0 0 1 .82 1.81l-2.234 2.554H4.91a1.091 1.091 0 0 1 0 2.181z" fill="#CEBEEF"/>
</svg>
